<?xml version="1.0" encoding="UTF-8"?>
<svg width="58px" height="61px" viewBox="0 0 58 61" version="1.1" xmlns="http://www.w3.org/2000/svg" xmlns:xlink="http://www.w3.org/1999/xlink">
    <!-- Generator: Sketch 64 (93537) - https://sketch.com -->
    <title>logo</title>
    <desc>Created with Sketch.</desc>
    <g id="Page-1" stroke="none" stroke-width="1" fill="none" fill-rule="evenodd">
        <g id="logo" fill-rule="nonzero">
            <path d="M56,53 C56,57.4 52.4,61 48,61 L8,61 C3.6,61 0,57.4 0,53 L0,8 C0,3.6 3.6,0 8,0 L48,0 C52.4,0 56,3.6 56,8 L56,53 Z" id="Path" fill="#D2D2D6"></path>
            <path d="M8,59.3 C4.7,59.3 2,56.6 2,53.3 L2,8.3 C2,5 4.7,2.3 8,2.3 L48,2.3 C51.3,2.3 54,5 54,8.3 L54,53.3 C54,56.6 51.3,59.3 48,59.3 L8,59.3 Z" id="Path" fill="#323235"></path>
            <rect id="Rectangle" fill="#57575E" x="8" y="8.3" width="40" height="45"></rect>
            <g id="React-icon-(1)" transform="translate(11.000000, 16.000000)" fill="#61DAFB">
                <path d="M33.9775235,15.1111111 C33.9775235,12.863463 31.1627765,10.7333842 26.8472921,9.41245868 C27.8431732,5.01398424 27.4005594,1.51456903 25.4502924,0.394202899 C25.0007628,0.131400966 24.4751589,0.00691584033 23.9011442,0.00691584033 L23.9011442,1.54914823 C24.2192728,1.54914823 24.4751589,1.6113908 24.68955,1.72896008 C25.6301042,2.26839563 26.0381388,4.3224002 25.7200102,6.96425121 C25.6439359,7.6143402 25.5194508,8.29900839 25.3673023,8.99750826 C24.0117976,8.66554793 22.5318078,8.40966184 20.9757437,8.24368167 C20.0421053,6.96425121 19.0738876,5.80239003 18.0987541,4.78576151 C20.3533181,2.69026189 22.4695652,1.54223239 23.90806,1.54223239 L23.90806,0 C23.90806,0 23.90806,0 23.90806,0 C22.0062039,0 19.5165014,1.3555047 16.9991355,3.70689041 C14.4817696,1.36933638 11.9920671,0.0276633613 10.090211,0.0276633613 L10.090211,1.56989575 C11.52179,1.56989575 13.644953,2.71100941 15.8995169,4.79267735 C14.9312993,5.80930587 13.9630816,6.96425121 13.0432749,8.24368167 C11.4802949,8.40966184 10.0003051,8.66554793 8.64480041,9.0044241 C8.48573608,8.31284007 8.36816679,7.64200356 8.28517671,6.99883041 C7.96013221,4.35697941 8.36125095,2.30297483 9.2948894,1.75662344 C9.50236461,1.63213832 9.77208238,1.57681159 10.090211,1.57681159 L10.090211,0.0345792016 C10.090211,0.0345792016 10.090211,0.0345792016 10.090211,0.0345792016 C9.50928045,0.0345792016 8.98367658,0.159064327 8.52723112,0.42186626 C6.58387999,1.54223239 6.14818205,5.03473176 7.1509789,9.41937452 C2.84932621,10.7472159 0.0484108823,12.8703788 0.0484108823,15.1111111 C0.0484108823,17.3587592 2.86315789,19.488838 7.17864226,20.8097635 C6.18276125,25.208238 6.62537503,28.7076532 8.575642,29.8280193 C9.02517162,30.0908213 9.55077549,30.2153064 10.1317061,30.2153064 C12.0335622,30.2153064 14.5232647,28.8598017 17.0406306,26.508416 C19.5579964,28.84597 22.047699,30.187643 23.949555,30.187643 C24.5304856,30.187643 25.0560895,30.0631579 25.512535,29.800356 C27.4558861,28.6799898 27.891584,25.1874905 26.8887872,20.8028477 C31.1766082,19.4819222 33.9775235,17.3518434 33.9775235,15.1111111 Z M24.9730994,10.4982456 C24.7172133,11.390389 24.3990847,12.3101958 24.039461,13.2300025 C23.7559115,12.6767353 23.4585304,12.1234681 23.1334859,11.5702009 C22.8153572,11.0169336 22.4764811,10.4774981 22.1376049,9.95189423 C23.1196542,10.0971269 24.0671243,10.2769387 24.9730994,10.4982456 Z M21.8056445,17.8636156 C21.266209,18.797254 20.7129418,19.6824816 20.138927,20.5054666 C19.1084668,20.5953725 18.0641749,20.6437834 17.0129672,20.6437834 C15.9686753,20.6437834 14.9243834,20.5953725 13.9008391,20.5123824 C13.3268243,19.6893974 12.7666412,18.8110857 12.2272057,17.8843631 C11.7016018,16.978388 11.2244088,16.0585812 10.7887109,15.1318586 C11.217493,14.205136 11.7016018,13.2784134 12.2202899,12.3724383 C12.7597254,11.4387999 13.3129926,10.5535723 13.8870074,9.73058734 C14.9174676,9.64068141 15.9617595,9.59227053 17.0129672,9.59227053 C18.0572591,9.59227053 19.101551,9.64068141 20.1250953,9.7236715 C20.6991101,10.5466565 21.2592932,11.4249682 21.7987287,12.3516908 C22.3243326,13.2576659 22.8015256,14.1774727 23.2372235,15.1041953 C22.8015256,16.0309179 22.3243326,16.9576405 21.8056445,17.8636156 Z M24.039461,16.9645563 C24.4129163,17.8912789 24.731045,18.8180015 24.9938469,19.7170608 C24.0878719,19.9383677 23.1334859,20.1250953 22.1445207,20.270328 C22.4833969,19.7378083 22.8222731,19.1914569 23.1404017,18.6312738 C23.4585304,18.0780066 23.7559115,17.5178235 24.039461,16.9645563 Z M17.0267989,24.3437579 C16.3836257,23.6798373 15.7404526,22.9398424 15.1041953,22.130689 C15.7266209,22.1583524 16.3628782,22.1790999 17.0060514,22.1790999 C17.6561404,22.1790999 18.2993135,22.1652682 18.928655,22.130689 C18.3062293,22.9398424 17.6630562,23.6798373 17.0267989,24.3437579 Z M11.8814137,20.270328 C10.8993644,20.1250953 9.95189423,19.9452835 9.04591915,19.7239766 C9.30180524,18.8318332 9.61993389,17.9120264 9.97955759,16.9922197 C10.263107,17.5454869 10.5604882,18.0987541 10.8855327,18.6520214 C11.2105772,19.2052886 11.5425375,19.7447241 11.8814137,20.270328 Z M16.9922197,5.87846428 C17.6353928,6.54238495 18.278566,7.28237986 18.9148233,8.09153318 C18.2923977,8.06386982 17.6561404,8.0431223 17.0129672,8.0431223 C16.3628782,8.0431223 15.7197051,8.05695398 15.0903636,8.09153318 C15.7127892,7.28237986 16.3559624,6.54238495 16.9922197,5.87846428 Z M11.8744978,9.95189423 C11.5356217,10.4844139 11.1967455,11.0307653 10.8786168,11.5909484 C10.5604882,12.1442156 10.263107,12.6974828 9.97955759,13.2507501 C9.60610221,12.3240275 9.28797356,11.3973049 9.02517162,10.4982456 C9.93114671,10.2838546 10.8855327,10.0971269 11.8744978,9.95189423 Z M5.61566234,18.6105263 C3.16745487,17.5662344 1.58372743,16.196898 1.58372743,15.1111111 C1.58372743,14.0253242 3.16745487,12.649072 5.61566234,11.6116959 C6.21042461,11.3558098 6.8605136,11.1275871 7.53135011,10.913196 C7.92555301,12.2687007 8.44424104,13.6795322 9.08741419,15.1249428 C8.45115688,16.5634376 7.93938469,17.9673532 7.55209764,19.315942 C6.86742944,19.101551 6.21734045,18.8664124 5.61566234,18.6105263 Z M9.33638444,28.4932621 C8.39583016,27.9538266 7.98779558,25.899822 8.30592423,23.257971 C8.38199847,22.607882 8.5064836,21.9232138 8.65863209,21.224714 C10.0141368,21.5566743 11.4941266,21.8125604 13.0501907,21.9785406 C13.9838291,23.257971 14.9520468,24.4198322 15.9271803,25.4364607 C13.6726163,27.5319603 11.5563692,28.6799898 10.1178744,28.6799898 C9.80666158,28.673074 9.54385965,28.6108314 9.33638444,28.4932621 Z M25.7407577,23.2233918 C26.0658022,25.8652428 25.6646834,27.9192474 24.731045,28.4655988 C24.5235698,28.5900839 24.253852,28.6454106 23.9357234,28.6454106 C22.5041444,28.6454106 20.3809814,27.504297 18.1264175,25.422629 C19.0946351,24.4060005 20.0628528,23.2510552 20.9826595,21.9716247 C22.5456395,21.8056445 24.0256293,21.5497585 25.381134,21.2108823 C25.5401983,21.9093822 25.6646834,22.5802187 25.7407577,23.2233918 Z M28.4033562,18.6105263 C27.8085939,18.8664124 27.158505,19.0946351 26.4876684,19.3090262 C26.0934655,17.9535215 25.5747775,16.5426901 24.9316044,15.0972794 C25.5678617,13.6587846 26.0796339,12.2548691 26.4669209,10.9062802 C27.1515891,11.1206712 27.8016781,11.3558098 28.4102721,11.6116959 C30.8584795,12.6559878 32.442207,14.0253242 32.442207,15.1111111 C32.4352911,16.196898 30.8515637,17.5731503 28.4033562,18.6105263 Z" id="Shape"></path>
                <circle id="Oval" cx="17.0060514" cy="15.1111111" r="3.16053903"></circle>
            </g>
            <rect id="Rectangle" fill="#A6A6AD" x="55" y="32.6" width="1.5" height="17.7"></rect>
            <path d="M56.1,24.3 L56,24.3 C57.1,24.3 58,23.4 58,22.3 L58,14.3 C58,13.2 57.1,12.3 56,12.3 L56.1,12.3 C54.9,12.3 54,13.2 54,14.4 L54,22.2 C54,23.4 54.9,24.3 56.1,24.3 Z" id="Path" fill="#A6A6AD"></path>
            <path d="M55,22.2 L55,14.4 C55,13.3 54.9,12.3 56.1,12.3 C56.1,12.3 56.1,12.3 56,12.3 L56.1,12.3 C54.9,12.3 54,13.2 54,14.4 L54,22.2 C54,23.4 54.9,24.3 56.1,24.3 L56,24.3 C56,24.3 56,24.3 56.1,24.3 C54.9,24.3 55,23.4 55,22.2 Z" id="Path" fill="#000000" opacity="0.1"></path>
            <rect id="Rectangle" fill="#57575E" x="56" y="17.8" width="2" height="1"></rect>
            <rect id="Rectangle" fill="#57575E" x="56" y="15.8" width="2" height="1"></rect>
            <rect id="Rectangle" fill="#57575E" x="56" y="13.8" width="2" height="1"></rect>
            <rect id="Rectangle" fill="#57575E" x="56" y="19.8" width="2" height="1"></rect>
            <rect id="Rectangle" fill="#57575E" x="56" y="21.8" width="2" height="1"></rect>
        </g>
    </g>
</svg>